<?xml version="1.0" standalone="no"?>
<!DOCTYPE svg PUBLIC "-//W3C//DTD SVG 20010904//EN"
        "http://www.w3.org/TR/2001/REC-SVG-20010904/DTD/svg10.dtd">
<svg version="1.0" xmlns="http://www.w3.org/2000/svg"
     width="296.000000pt" height="73.000000pt" viewBox="0 0 296.000000 73.000000"
     preserveAspectRatio="xMidYMid meet">

    <g transform="translate(0.000000,73.000000) scale(0.100000,-0.100000)"
       fill="#FF0000" stroke="none">
        <path id="icon" d="M2625 674 c-95 -24 -151 -67 -193 -148 -34 -67 -43 -199 -18 -274 21
-62 87 -139 141 -163 55 -25 166 -25 220 0 48 22 85 56 86 79 5 72 -47 97
-108 52 -20 -14 -45 -22 -76 -22 -93 -2 -152 67 -152 177 0 71 23 118 76 153
42 30 112 26 154 -6 50 -39 115 -19 115 36 0 30 -44 77 -89 95 -43 18 -125 28
-156 21z"/>
        <path id="icon" d="M100 640 c-20 -20 -20 -31 -18 -282 l3 -262 28 -16 c24 -13 30 -13
55 0 26 15 27 18 30 118 l3 102 64 0 c52 0 69 4 85 20 24 24 25 48 4 78 -13
19 -24 22 -85 22 l-69 0 0 60 0 60 93 0 c103 0 117 7 117 56 0 54 -25 64 -167
64 -110 0 -125 -2 -143 -20z"/>
        <path id="icon" d="M536 638 c-19 -17 -48 -86 -111 -265 -91 -261 -94 -284 -41 -297 38
-9 65 9 86 60 l19 44 95 0 95 0 20 -45 c25 -57 59 -75 96 -51 17 11 25 26 25
44 0 21 -101 311 -169 485 -10 26 -44 47 -76 47 -8 0 -25 -10 -39 -22z m73
-264 c11 -31 21 -60 21 -65 0 -5 -23 -9 -51 -9 -37 0 -50 4 -47 13 3 6 13 36
23 65 11 28 22 52 26 52 3 0 16 -25 28 -56z"/>
        <path id="icon" d="M883 645 c-23 -16 -23 -18 -23 -280 l0 -265 24 -15 c32 -21 75 -10
87 22 5 13 9 62 9 109 l0 84 43 0 43 0 49 -101 c53 -108 79 -135 117 -123 50
15 50 55 -1 165 l-39 84 39 42 c79 86 57 213 -46 267 -55 29 -267 36 -302 11z
m252 -129 c26 -26 25 -46 -3 -78 -12 -14 -31 -18 -84 -18 l-68 0 0 60 0 60 65
0 c57 0 69 -3 90 -24z"/>
        <path id="icon" d="M1438 643 c-26 -31 -28 -37 -63 -253 -36 -218 -41 -275 -26 -299 12
-19 68 -18 87 1 9 9 25 72 40 154 13 76 26 144 28 149 3 10 10 -12 63 -200 24
-87 32 -101 57 -113 25 -13 31 -12 54 5 26 20 29 26 82 202 21 68 35 100 40
90 4 -8 13 -59 20 -114 17 -144 26 -174 56 -185 33 -13 72 3 79 33 4 13 -10
131 -29 263 -33 222 -38 241 -62 262 -14 12 -36 22 -49 22 -48 0 -72 -37 -114
-174 -22 -71 -44 -133 -49 -138 -5 -5 -24 43 -48 124 -28 97 -46 140 -66 161
-31 31 -77 36 -100 10z"/>
        <path id="icon" d="M2058 653 c-33 -8 -39 -68 -36 -315 2 -177 6 -240 16 -250 9 -9 53
-14 145 -16 154 -3 180 5 185 56 5 55 -8 62 -119 62 l-99 0 0 65 0 65 80 0
c75 0 81 2 91 24 16 35 3 75 -27 86 -14 6 -52 10 -85 10 l-59 0 0 50 0 50 93
0 c103 0 117 7 117 56 0 55 -25 64 -165 63 -66 -1 -128 -3 -137 -6z"/>
        <path id="icon" d="M80 25 c0 -13 161 -15 1390 -15 1229 0 1390 2 1390 15 0 13 -161 15
-1390 15 -1229 0 -1390 -2 -1390 -15z"/>
    </g>
</svg>
